<svg xmlns="http://www.w3.org/2000/svg" viewBox="0 0 256.78 256.78"><defs><style>.cls-1{fill:#fff;}.cls-2{fill:#b4b4b4;}.cls-3{fill:#353638;}.cls-4{fill:#6b6b6b;}.cls-5{fill:#1f2023;}.cls-6{fill:#5e606e;}.cls-7,.cls-8{fill:none;}.cls-8{stroke:#000;stroke-miterlimit:10;stroke-width:3px;}</style></defs><g id="Layer_2" data-name="Layer 2"><g id="Layer_1-2" data-name="Layer 1"><path class="cls-1" d="M255.28,128.39a126.38,126.38,0,0,1-29,80.7,127.59,127.59,0,0,1-28.52,25.54,127,127,0,0,1-138.81,0,128,128,0,0,1-27.73-24.59q-3-3.51-5.65-7.24-1.26-1.73-2.46-3.51a126.7,126.7,0,0,1-9.8-17.3c-.88-1.88-1.71-3.77-2.49-5.7C9.9,174,9,171.59,8.2,169.19c-.31-.92-.61-1.84-.91-2.77h0Q6,162.17,4.93,157.8q-.67-2.82-1.22-5.69c-.35-1.88-.67-3.78-.94-5.69s-.49-3.78-.67-5.69q-.6-6.09-.6-12.34a126.89,126.89,0,0,1,253.78,0Z"/><path class="cls-2" d="M221.58,199.07v5.69h4.74v-5.69Z"/><path class="cls-2" d="M215.27,199.07c-.17,1.74-.36,3.5-.56,5.52h-5.33v7.19H196.5v5.77H185.29v5.53H173.83c-.1,2.07-.17,3.67-.27,5.56H138.24c-.08-1.65-.17-3.25-.27-5.11H125.62c-.16,1.44-.35,3.2-.58,5.18h-5.2c-.12-1.52-.27-3.3-.44-5.29l-5.39-.3v-5.49H102.78v-5.38l-5.73-.62V193.71h5.32c.1,1.6.19,3.2.3,5.08h22.27c.2,2,.38,3.72.62,6h6.85V199.3h11.18v-5.59h5.75c.09,1.58.17,3.17.27,5.06h11.12c.08-1.68.17-3.27.24-4.78.24-.24.41-.55.57-.55,9.46,0,18.92,0,28.9,0,.15,1.64.34,3.39.54,5.39h5.13c.17-1.46.36-3.23.6-5.43H215.1v-5.69H203.91c-.18-1.71-.38-3.48-.64-5.69-6,0-12.12,0-18.21.08v5.49c-3.84.23-7.76.09-11.64.1s-8,0-12.25,0v-5.52c8,0,16,0,23.89-.09V176.3H149.74c-.23,2.19-.41,4-.61,5.94H144c-.21,2-.38,3.75-.54,5.16h-5.26c-.1-1.86-.19-3.46-.3-5.52h-18.2c-.1-2.08-.18-3.67-.3-5.75H108v-6.71l-5.5-.57V163.5H96.84v-5.7H90.06c-.18,1.73-.37,3.49-.58,5.5h-5.2c-.14,2-.28,3.75-.44,5.73l-5.4.3v12.58H67v5.63H31.65v-5.26H42.76v-6H26c-.18,1.72-.38,3.48-.64,5.7h-12a126.7,126.7,0,0,0,9.8,17.3h2.31c0,1.09.11,2.28.15,3.51q2.68,3.72,5.65,7.24c.09-1.56.19-3.26.29-5.07H36.9v6.74l5.75.27v5.41l5.73.31v5.41h5.51v-5.27l7.14-.48v-5.28l5.92-.26v22.81H59a127,127,0,0,0,138.81,0,128.38,128.38,0,0,0,14.86-11.37h-3.27v-5.42h5.19c.22-2,.39-3.71.6-5.72h5.18c.16-2.43.3-4.67.48-7.36h.74v-5.69Zm-148.37.24h5.36v5.45h-5C67.12,203.07,67,201.33,66.9,199.31Zm35.63,35.33c0-1.89,0-3.8-.13-5.69H84.28V217.78h-5.6v-5.7H89.59v5.39h7.19v5.76h5.51c0,2.07,0,3.89.11,5.72h11.51v5.69Z"/><path class="cls-3" d="M226.32,204.76v4.33a128.81,128.81,0,0,1-13.66,14.17h-3.27v-5.42h5.19c.22-2,.39-3.71.6-5.72h5.18c.16-2.43.3-4.67.48-7.36Z"/><path class="cls-4" d="M196.71,193.38c-.24,2.2-.43,4-.6,5.43H191c-.2-2-.39-3.75-.54-5.39-10,0-19.44,0-28.9,0-.16,0-.33.31-.57.55-.07,1.51-.16,3.1-.24,4.78H149.61c-.1-1.89-.18-3.48-.27-5.06h-5.75v5.59H132.41c0,2.15,0,3.81.1,5.56,1.71.12,3.5.12,5.45.12v6.6h-5.35c0-2.28,0-4.54-.1-6.72-2.42-.1-4.73-.1-6.95-.1-.24-2.25-.42-4-.62-6H102.67c-.11-1.88-.2-3.48-.3-5.08H97.05v17.92l5.73.62v5.38H114v5.49l5.39.3c.17,2,.32,3.77.44,5.29H125c.23-2,.42-3.74.58-5.18H138c.1,1.86.19,3.46.27,5.11h35.32c.1-1.89.17-3.49.27-5.56h11.46v-5.53H196.5v-5.77h12.88v-7.19h5.33c.2-2,.39-3.78.56-5.52h6.31v-5.69Zm-23.28,11.27h-5.21V199.3l5.21-.27Z"/><path class="cls-5" d="M209.08,176.3v11.39h-5.17c-.18-1.71-.38-3.48-.64-5.69H185.06v-5.7Z"/><path class="cls-2" d="M196.75,169.2v7.1H185.06v-7C188.91,169.09,192.8,169.17,196.75,169.2Z"/><path class="cls-2" d="M173.43,199v5.62h-5.21V199.3Z"/><path class="cls-2" d="M143.59,86.94v5.21h-11V98h-7.08c-.62-3.56-.08-7.2-.31-11.1Z"/><path class="cls-2" d="M138,205v6.6h-5.35V205Z"/><path class="cls-2" d="M138,98.25v6.61h-5.35V98.25Z"/><path class="cls-2" d="M132.47,176.06h-7.06v-6.63h6.76C132.25,171.37,132.35,173.59,132.47,176.06Z"/><path class="cls-2" d="M119.84,62.27c-.21-2-.39-3.77-.58-5.49h-5.35V75c-1.71.08-3.46.18-5.48.3V69.78H84.23v-7H78.46v6.69H67.11c-.1,2.07-.19,3.66-.27,5.52H54.5c-.2,2-.38,3.72-.6,5.72H43.13c-.21,2-.4,3.73-.59,5.71H37.4v-11l5.26-.27V69.74l5.75-.29v-7H61.26v-5.7H43.05c-.24,2.23-.44,4-.66,6H37v7H31.21v5.34l-5.76.57V81H18.5v5.53L13,86.81c-.08,1.94-.17,3.72-.26,5.71H7.42c-.2,2-.39,3.79-.56,5.52H5.15A127.57,127.57,0,0,0,1.5,128.39q0,6.24.6,12.34H6.93c.15-2.19.29-4.43.46-6.89h18c.14,1.95.3,4.19.48,6.65h5.24V127.92H48.2c.1,1.71.2,3.46.31,5.69H37.07v6.81c1.74.15,3.52.34,5.52.54v5.15h5.72c.09-1.65.17-3.25.27-5.11h5.27c.17-2.46.33-4.7.51-7.17H61c.16-2,.3-3.77.46-5.72h5.42v5.36H78.34v-5.55H72.65v-5.69H61.59c-.17-1.73-.36-3.51-.56-5.51H48.7c-.15-2-.27-3.77-.42-5.7H42.83v5.49H19.34c-.43.41-.74.57-.74.74,0,1.42,0,2.85,0,4.63H7.4V111c1.61-.08,3.39-.15,5.32-.23.1-1.85.19-3.45.3-5.54H25.66V98h22.8V92.55c5.94-.5,12,0,18.22-.29V87l5.71-.37v4.72c.41.45.57.77.72.77,5.37,0,10.72,0,16.34,0V87l7.13-.39V92l6,.66V98h5.69V92.32H114V86.8l5.75-.31V69.72l5.25-.28V62.27ZM83.9,86.4H78.58c-.07-1.25-.6-2.93-.14-4.3.84-2.57,3.31-.21,5.46-2.12Z"/><path class="cls-2" d="M119.45,163.7v5.19h-5.34V163.7Z"/><rect class="cls-3" x="102.53" y="228.95" width="11.38" height="5.69"/><path class="cls-2" d="M113.91,157.8v5.7H102.53v-5.7h11.38Z"/><path class="cls-2" d="M113.91,51.08v5.7H61.26v-5a3.14,3.14,0,0,1,.5-.46,1.28,1.28,0,0,1,.61-.21C79.39,51.08,96.41,51.08,113.91,51.08Z"/><path class="cls-2" d="M113.77,98.25v6.61h-5.35V98.25Z"/><circle class="cls-5" cx="105.37" cy="154.96" r="4.02"/><path class="cls-2" d="M108.22,146.42v5.69h-5.69v-5.69Z"/><circle class="cls-2" cx="99.68" cy="154.96" r="4.02"/><circle class="cls-5" cx="99.68" cy="149.27" r="4.02"/><path class="cls-2" d="M102.53,133.61v12.81H96.84V133.61Z"/><path class="cls-2" d="M102.53,98v7.12H96.84V98Z"/><path class="cls-3" d="M102.53,92.63V98H96.84v7.12H89.72v11.38H72.65v-5.45c2.19-.21,3.95-.4,5.47-.54v-5.39h-24V98h-5.7V92.55c5.95-.5,12,0,18.23-.29V87l5.71-.37v4.72c.41.45.57.77.72.77,5.37,0,10.72,0,16.34,0V87l7.13-.39V92Z"/><polygon class="cls-3" points="102.29 223.23 102.29 228.95 84.28 228.95 84.28 217.78 78.68 217.78 78.68 212.08 89.59 212.08 89.59 217.47 96.78 217.47 96.78 223.23 102.29 223.23"/><path class="cls-2" d="M96.84,146.42v5.69H89.72v-5.69Z"/><path class="cls-4" d="M96.84,133.61v12.81H84v-5.75l-5.69.32v5.43H72.89c-.22,2.19-.4,4-.59,5.91H66.77V163.5c-3.47,0-6.52-.07-9.55,0s-5.92-.4-8.76.36v5.32h-5.7v7.11H26c-.18,1.72-.38,3.48-.64,5.7h-12c-.88-1.88-1.71-3.77-2.49-5.7h2v-7.11H25.74c-.12-2.25-.21-4-.31-5.69H12.88v-5.7h5.75c-.11-2.23-.21-4-.31-5.69H12.88v-5.69H2.77q-.4-2.82-.67-5.69H6.93c.15-2.19.29-4.43.46-6.89h18c.14,1.95.3,4.19.48,6.65h5.24V127.92h5.93v12.5c1.74.15,3.52.34,5.52.54v5.15h5.72c.09-1.65.17-3.25.27-5.11h5.27c.17-2.46.33-4.7.51-7.17H61c.16-2,.3-3.77.46-5.72h5.42v5.36H78.34v-5.55h5.4c.26-2.23.45-4,.64-5.69h5.34v11.38Z"/><path class="cls-2" d="M96.84,127.92v5.69H89.72v-5.69Z"/><path class="cls-2" d="M96.84,105.16v11.38H89.72V105.16Z"/><path class="cls-2" d="M89.72,116.54v5.69H84.38c-.19,1.71-.38,3.46-.64,5.69h-5.4v-5.69H72.65v-5.69Z"/><path class="cls-2" d="M84,140.67v5.75H78.34V141Z"/><path class="cls-2" d="M78.34,146.42v16.92c-2,.1-3.53.19-5.6.28v5.57H48.45v-5.32c2.85-.76,5.84-.27,8.77-.36s6.08,0,9.55,0V152.33H72.3c.19-2,.37-3.72.59-5.91Z"/><path class="cls-2" d="M78.12,105.16v5.39c-1.52.14-3.28.33-5.47.54v5.45h-5.4c-.14-1.68-.3-3.4-.48-5.55H54.15v-5.83Z"/><path class="cls-4" d="M25.61,202.81q-1.26-1.73-2.46-3.51h2.31C25.5,200.39,25.57,201.58,25.61,202.81Z"/><path class="cls-4" d="M67,211.83v22.81H59a128,128,0,0,1-27.73-24.59c.09-1.56.19-3.26.29-5.07H36.9v6.74l5.75.27v5.41l5.73.31v5.41h5.51v-5.27l7.14-.48v-5.28Z"/><path class="cls-2" d="M54.15,98v7.12h-5.7V98Z"/><path class="cls-2" d="M48.45,169.19v7.11H42.76v-7.11Z"/><path class="cls-2" d="M25.74,169.19H12.88V163.5H25.43C25.53,165.2,25.62,166.94,25.74,169.19Z"/><path class="cls-2" d="M18.63,157.8H12.88v-5.69h5.44C18.42,153.82,18.52,155.57,18.63,157.8Z"/><path class="cls-2" d="M12.88,157.8v5.7H7.13c.06,1.07.11,2,.16,2.91Q6,162.17,4.93,157.8Z"/><path class="cls-2" d="M8.2,169.19h4.68v7.11h-2C9.9,174,9,171.59,8.2,169.19Z"/><path class="cls-2" d="M12.88,146.42v5.69H3.71c-.35-1.88-.67-3.78-.94-5.69Z"/><path class="cls-6" d="M7.19,152.11v5.69H4.93q-.67-2.82-1.22-5.69Z"/><polyline class="cls-7" points="196.75 176.3 196.75 169.2 196.75 169.19"/><line class="cls-7" x1="209.08" y1="187.69" x2="209.08" y2="176.3"/><line class="cls-7" x1="221.58" y1="199.07" x2="221.58" y2="193.38"/><path class="cls-8" d="M255.28,128.39a126.38,126.38,0,0,1-29,80.7,127.59,127.59,0,0,1-28.52,25.54,127,127,0,0,1-138.81,0,128,128,0,0,1-27.73-24.59q-3-3.51-5.65-7.24-1.26-1.73-2.46-3.51a126.7,126.7,0,0,1-9.8-17.3c-.88-1.88-1.71-3.77-2.49-5.7C9.9,174,9,171.59,8.2,169.19c-.31-.92-.61-1.84-.91-2.77h0Q6,162.17,4.93,157.8q-.67-2.82-1.22-5.69c-.35-1.88-.67-3.78-.94-5.69s-.49-3.78-.67-5.69q-.6-6.09-.6-12.34a126.89,126.89,0,0,1,253.78,0Z"/></g></g></svg>