<svg xmlns="http://www.w3.org/2000/svg" viewBox="0 0 351.71 287.61"><g id="Layer_2" data-name="Layer 2"><g id="Layer_1-2" data-name="Layer 1"><path d="M70.34,273.19a4.8,4.8,0,0,0-.42,4.17,8.32,8.32,0,0,0,3,3.88,9.12,9.12,0,0,0,3.24,1.62,5.54,5.54,0,0,0,2.92,0,4.19,4.19,0,0,0,2.18-1.54,3.63,3.63,0,0,0,.78-2,4.72,4.72,0,0,0-.32-2.05,10.45,10.45,0,0,0-1-2,20.35,20.35,0,0,0-1.26-1.73l-2.11-2.63a26.86,26.86,0,0,1-2-2.81A13.21,13.21,0,0,1,74,264.84a8.36,8.36,0,0,1-.25-3.56,8,8,0,0,1,1.61-3.64,9,9,0,0,1,4.19-3.17,9.85,9.85,0,0,1,5.47-.25,15.86,15.86,0,0,1,6.12,3,16.25,16.25,0,0,1,4.5,4.85A9.94,9.94,0,0,1,97,267.33a9.75,9.75,0,0,1-1.75,5.21l-4.06-3a5.12,5.12,0,0,0,.86-3.12,6.2,6.2,0,0,0-1.07-3,10.44,10.44,0,0,0-2.51-2.6A9.89,9.89,0,0,0,85,259a6.2,6.2,0,0,0-3.25-.06,4.43,4.43,0,0,0-2.48,1.7,3.58,3.58,0,0,0-.78,2.46,6.27,6.27,0,0,0,.88,2.61,23.26,23.26,0,0,0,1.93,2.81l2.52,3.23A15.27,15.27,0,0,1,87,278.17a7.21,7.21,0,0,1-1.48,5.9,8.34,8.34,0,0,1-4.28,3.11,10.39,10.39,0,0,1-5.41.14,14.55,14.55,0,0,1-5.56-2.65,14.3,14.3,0,0,1-4.1-4.55A10.16,10.16,0,0,1,64.84,275a8.35,8.35,0,0,1,1.6-4.77Z"/><path d="M77.58,247,52.86,269.54,38.73,254l3.21-2.93,10.73,11.77L60.2,256l-10-11,3.2-2.92,10,11,7.57-6.9L60.11,234.28l3.21-2.93Z"/><path d="M17.61,221.23l28.82-17,2.36,4-12.5,27.11.16.26,21.13-12.46,2.57,4.35-28.82,17-2.38-4,12.53-27.14-.16-.27L20.15,225.54Z"/><path d="M40.93,188.74l3.27,10.32L12.3,209.15,8.93,198.5a16.88,16.88,0,0,1-.64-8.66A13.31,13.31,0,0,1,12.13,183a19.48,19.48,0,0,1,7.95-4.49,19.63,19.63,0,0,1,9.14-.9,13.45,13.45,0,0,1,7.17,3.5A17.51,17.51,0,0,1,40.93,188.74Zm-2.46,6.84-1.66-5.25a12.67,12.67,0,0,0-3.3-5.62,9,9,0,0,0-5.14-2.35,16.2,16.2,0,0,0-6.79.83,16,16,0,0,0-6,3.21,8.86,8.86,0,0,0-2.85,4.8,12,12,0,0,0,.49,6.26L15,203Z"/><path d="M34,157.22.51,158l-.51-21L4.34,137l.39,15.92,10.19-.24-.36-14.83,4.33-.1.36,14.82,10.24-.24-.39-16.12,4.34-.11Z"/><path d="M4.79,127.74.51,127l4.33-25.53,4.28.73L7.38,112.5l28.7,4.88-.84,5-28.7-4.88Z"/><path d="M38.89,103.13l-31-12.5L9.75,86l13.48,5.43,6.23-15.47L16,70.48l1.89-4.7,31,12.5L47,83,33.48,77.53,27.25,93l13.53,5.45Z"/><path d="M281.57,14.44a4.79,4.79,0,0,0,.43-4.18A8.3,8.3,0,0,0,279,6.38a8.76,8.76,0,0,0-3.23-1.62,5.55,5.55,0,0,0-2.92,0,4.19,4.19,0,0,0-2.19,1.54,3.71,3.71,0,0,0-.78,2,4.74,4.74,0,0,0,.32,2,10.71,10.71,0,0,0,1,2A20.35,20.35,0,0,0,272.42,14l2.1,2.63a24.73,24.73,0,0,1,2,2.82A12.83,12.83,0,0,1,278,22.78a8.52,8.52,0,0,1,.24,3.56A7.89,7.89,0,0,1,276.58,30a8.93,8.93,0,0,1-4.19,3.17,9.88,9.88,0,0,1-5.48.24,15.78,15.78,0,0,1-6.11-3,16.21,16.21,0,0,1-4.49-4.85,10,10,0,0,1-1.41-5.29,9.74,9.74,0,0,1,1.76-5.2l4,3a5.18,5.18,0,0,0-.86,3.12,6.23,6.23,0,0,0,1.07,3,10.61,10.61,0,0,0,2.51,2.6,10.06,10.06,0,0,0,3.45,1.75,6.42,6.42,0,0,0,3.25.06,4.43,4.43,0,0,0,2.48-1.7,3.52,3.52,0,0,0,.79-2.46,6.27,6.27,0,0,0-.88-2.61,23.12,23.12,0,0,0-1.92-2.81l-2.52-3.24a15.24,15.24,0,0,1-3.16-6.39,7.18,7.18,0,0,1,1.49-5.9,8.37,8.37,0,0,1,4.28-3.1A10.39,10.39,0,0,1,276.1.29,14.61,14.61,0,0,1,281.66,3a14.16,14.16,0,0,1,4.09,4.55,10.17,10.17,0,0,1,1.32,5.08,8.27,8.27,0,0,1-1.61,4.77Z"/><path d="M274.29,40.62l24.76-22.5,14.1,15.52-3.21,2.92L299.23,24.77l-7.55,6.86,10,11-3.2,2.92-10-11-7.58,6.89,10.85,11.93-3.22,2.92Z"/><path d="M334.22,66.47l-28.84,17-2.35-4,12.54-27.09-.16-.27L294.25,64.49l-2.55-4.35,28.84-17,2.37,4L310.35,74.34l.16.27,21.18-12.45Z"/><path d="M310.86,98.93,307.61,88.6l31.91-10,3.35,10.66a16.94,16.94,0,0,1,.63,8.65,13.36,13.36,0,0,1-3.85,6.89,22.14,22.14,0,0,1-17.1,5.36,13.35,13.35,0,0,1-7.16-3.5A17.59,17.59,0,0,1,310.86,98.93Zm2.47-6.84L315,97.34a12.69,12.69,0,0,0,3.29,5.63,8.93,8.93,0,0,0,5.14,2.35,18.47,18.47,0,0,0,12.79-4,8.92,8.92,0,0,0,2.85-4.8,12.09,12.09,0,0,0-.48-6.26l-1.74-5.55Z"/><path d="M317.79,130.46l33.45-.76.47,21-4.34.1L347,134.85l-10.19.23.34,14.83-4.33.09-.33-14.82-10.24.23.36,16.12-4.34.1Z"/><path d="M346.9,160l4.29.74-4.37,25.52-4.29-.74,1.76-10.29L315.6,170.3l.85-5,28.69,4.92Z"/><path d="M312.77,184.54l31,12.54-1.89,4.68-13.48-5.45-6.25,15.46,13.47,5.45-1.89,4.7-31-12.55,1.9-4.69,13.52,5.47,6.26-15.46-13.53-5.47Z"/></g></g></svg>